<?xml version="1.0" standalone="no"?>
<!DOCTYPE svg PUBLIC "-//W3C//DTD SVG 20010904//EN"
 "http://www.w3.org/TR/2001/REC-SVG-20010904/DTD/svg10.dtd">
<svg version="1.0" xmlns="http://www.w3.org/2000/svg"
 width="300.000000pt" height="300.000000pt" viewBox="0 0 300.000000 300.000000"
 preserveAspectRatio="xMidYMid meet">
<metadata>
Created by potrace 1.11, written by Peter Selinger 2001-2013
</metadata>
<g transform="translate(0.000000,300.000000) scale(0.100000,-0.100000)"
fill="#000000" stroke="none">
<path d="M760 2149 c0 -26 3 -29 33 -30 83 -2 122 -22 134 -69 7 -28 10 -830
3 -1000 -5 -126 -14 -138 -108 -144 -44 -3 -47 -6 -50 -32 l-3 -29 208 1 208
1 3 27 c3 19 -1 26 -15 27 -105 6 -136 17 -142 52 -4 21 -13 930 -9 971 l3 40
246 -295 c135 -162 284 -339 330 -394 46 -55 100 -120 119 -145 19 -25 79 -98
133 -163 94 -111 102 -118 156 -133 31 -9 61 -19 67 -21 7 -3 10 162 9 549 -1
604 3 710 27 734 9 9 41 18 77 21 59 6 61 7 61 33 l0 28 -210 0 -210 0 0 -29
c0 -26 4 -29 33 -30 17 -1 37 -2 42 -4 6 -1 22 -3 37 -3 48 -3 50 -25 54 -546
l3 -480 -37 41 c-70 77 -147 166 -162 187 -8 12 -19 26 -26 31 -6 6 -80 93
-164 195 -84 102 -162 196 -174 210 -47 54 -273 338 -305 382 l-33 47 -169 0
-169 0 0 -30z"/>
</g>
</svg>
